<svg height="168" viewBox="-19.43712797619047 -335.9840029761905 371.42113095238096 445.09300595238096" width="138.04084720121028" preserveAspectRatio="xMidYMid meet" xmlns="http://www.w3.org/2000/svg" version="1.1"><polyline points="16.0 16.0 120.0 88.0 160.0 64.0 312.0 184.0 " style="vector-effect: none; stroke: #6A82E0; stroke-linejoin: round; fill: none; stroke-width: 40; stroke-linecap: round; " transform="scale(1,-1)" /><circle cy="251.77708763999664" style="vector-effect: none; stroke: white; fill: #69AD57; stroke-width: 15; " r="48.00000000000003" transform="scale(1,-1)" cx="237.61825614671827" /><path style="vector-effect: none; stroke: #399746; fill: #69AD57; stroke-width: 10; fill-opacity: 0; stroke-linecap: round; " transform="scale(1,-1)" d="M231.44503783280254 226.43873379353033 Q 260.00825770257234 222.753293430265, 263.6936980658377 251.31651330003484 " /><circle cy="206.68982164912984" style="vector-effect: none; stroke: white; fill: #D8645F; stroke-width: 15; " r="48.000000000000014" transform="scale(1,-1)" cx="136.3505986964305" /><path style="vector-effect: none; stroke: #CA3C32; fill: #D8645F; stroke-width: 10; fill-opacity: 0; stroke-linecap: round; " transform="scale(1,-1)" d="M130.17738038251477 181.3514678026635 Q 158.7406002522846 177.6660274393982, 162.42604061554988 206.22924730916804 " /><circle cy="141.53309071087352" style="vector-effect: none; stroke: white; fill: #AB7AC1; stroke-width: 15; " r="47.99999999999996" transform="scale(1,-1)" cx="226.0311451568512" /><path style="vector-effect: none; stroke: #9259A3; fill: #AB7AC1; stroke-width: 10; fill-opacity: 0; stroke-linecap: round; " transform="scale(1,-1)" d="M219.85792684293543 116.19473686440719 Q 248.4211467127053 112.50929650114189, 252.1065870759706 141.07251637091173 " /><polyline points="0.0 0.0 336.0 0.0 " style="vector-effect: none; stroke: black; fill: none; stroke-width: 10; stroke-linecap: round; " transform="scale(1,-1)" /><polyline points="80.0 0.0 80.0 25.6 " style="vector-effect: none; stroke: black; fill: none; stroke-width: 10; stroke-linecap: round; " transform="scale(1,-1)" /><polyline points="160.0 0.0 160.0 25.6 " style="vector-effect: none; stroke: black; fill: none; stroke-width: 10; stroke-linecap: round; " transform="scale(1,-1)" /><polyline points="240.0 0.0 240.0 25.6 " style="vector-effect: none; stroke: black; fill: none; stroke-width: 10; stroke-linecap: round; " transform="scale(1,-1)" /><polyline points="0.0 0.0 0.0 320.0 " style="vector-effect: none; stroke: black; fill: none; stroke-width: 10; stroke-linecap: round; " transform="scale(1,-1)" /><polyline points="4.898587196589413e-15 80.0 25.600000000000005 80.0 " style="vector-effect: none; stroke: black; fill: none; stroke-width: 10; stroke-linecap: round; " transform="scale(1,-1)" /><polyline points="9.797174393178826e-15 160.0 25.60000000000001 160.0 " style="vector-effect: none; stroke: black; fill: none; stroke-width: 10; stroke-linecap: round; " transform="scale(1,-1)" /><polyline points="1.4695761589768237e-14 240.0 25.600000000000016 240.0 " style="vector-effect: none; stroke: black; fill: none; stroke-width: 10; stroke-linecap: round; " transform="scale(1,-1)" /><text x="-3.927083333333327" style="font-family: Trebuchet MS; text-anchor: start; vector-effect: none; font-size: 56.0pt; font-weight: bold; " transform="translate(0 155.625) rotate(-0.0, -3.927083333333327, -77.8125)" y="-77.8125">Vizagrams</text></svg>